<?xml version="1.0" standalone="no"?><!DOCTYPE svg PUBLIC "-//W3C//DTD SVG 1.1//EN" "http://www.w3.org/Graphics/SVG/1.1/DTD/svg11.dtd"><svg t="1728465601693" class="icon" viewBox="0 0 1024 1024" version="1.1" xmlns="http://www.w3.org/2000/svg" p-id="1476" xmlns:xlink="http://www.w3.org/1999/xlink" width="200" height="200"><path d="M331.690667 744.746667h465.450666v46.549333H331.690667z" fill="#ffffff" p-id="1477"></path><path d="M626.261333 254.592a79.445333 79.445333 0 0 1 97.664-9.301333l6.229334 4.48 5.546666 4.821333 48.085334 46.506667c26.368 25.429333 29.866667 65.066667 9.386666 94.549333l-4.394666 5.76-4.906667 5.248-367.146667 363.264a77.141333 77.141333 0 0 1-22.741333 15.146667l-6.613333 2.56-9.898667 2.432-77.653333-0.170667c-29.44 6.613333-58.837333-11.050667-65.706667-39.466667a50.261333 50.261333 0 0 1-1.365333-12.117333l0.426666-6.4 0.725334-3.456 1.024-73.813333c2.133333-8.661333 5.802667-16.896 11.008-24.448l4.266666-5.546667 5.333334-5.802667 370.773333-364.245333z m19.072 200.618667l-67.285333-65.066667-278.314667 273.493333-2.218666 3.072-0.725334 62.72 68.266667 0.213334 1.536-0.426667 2.304-0.981333 2.517333-1.962667 273.92-271.061333z m28.288-158.592l-2.048 1.621333L622.933333 346.026667l67.157334 64.938666 48.512-47.914666a12.970667 12.970667 0 0 0 3.584-12.672l-1.28-2.858667-2.304-2.773333-48.128-46.464a13.738667 13.738667 0 0 0-16.810667-1.664z" fill="#ffffff" p-id="1478"></path></svg>